<?xml version="1.0" encoding="UTF-8"?>
<svg width="502px" height="423px" viewBox="0 0 502 423" version="1.1" xmlns="http://www.w3.org/2000/svg" xmlns:xlink="http://www.w3.org/1999/xlink">
    <!-- Generator: Sketch 52.4 (67378) - http://www.bohemiancoding.com/sketch -->
    <title>Group</title>
    <desc>Created with Sketch.</desc>
    <defs>
        <path d="M124.152769,184.000063 L0.19699059,112.029033 L501.464138,0.0391793046 L129.215843,181.530114 L124.152769,184.000063 M127.437447,90.9717908 C115.401235,90.9717908 103.361512,93.639477 94.1781071,98.9713183 C75.8095415,109.636766 75.8095415,126.928175 94.1798626,137.593623 C103.365023,142.92723 115.401235,145.593151 127.440958,145.593151 C139.47717,145.593151 151.516893,142.925464 160.700298,137.593623 C179.068864,126.928175 179.068864,109.636766 160.698543,98.9713183 C151.513382,93.6377115 139.47717,90.9717908 127.437447,90.9717908" id="path-1"></path>
        <linearGradient x1="-37.742541%" y1="-60.9261303%" x2="54.9646796%" y2="41.8004357%" id="linearGradient-3">
            <stop stop-color="#BCB8D1" offset="0%"></stop>
            <stop stop-color="#E9E7EE" offset="100%"></stop>
        </linearGradient>
        <path d="M123.816801,289.867858 L0.0128586179,218.199608 L78.511214,164.084487 C79.6158861,168.514965 80.9169445,172.51646 82.4319234,175.394512 C83.4699646,177.368888 84.3800041,179.59995 85.1795763,181.975178 C75.8863025,182.882371 66.9682665,185.410557 59.7966646,189.561492 C41.4503393,200.182332 41.4520927,217.401418 59.798418,228.022258 C68.9724574,233.333557 80.9940962,235.988327 93.0192418,235.988327 C105.040881,235.988327 117.066026,233.333557 126.238312,228.024016 C144.584638,217.403176 144.584638,200.18409 126.236559,189.56325 C124.102613,188.327288 121.814363,187.235491 119.406879,186.286103 C119.731267,180.732183 120.087217,175.132552 120.206451,173.88604 C120.455441,171.312144 119.347262,157.331525 117.329043,150.408025 C116.40673,147.243398 116.129685,142.438439 116.099876,138.169709 L316.464614,0.040777338 L123.816801,289.867858" id="path-4"></path>
        <linearGradient x1="89.6334098%" y1="135.488626%" x2="49.0980418%" y2="35.4085532%" id="linearGradient-6">
            <stop stop-color="#BCB8D1" offset="0%"></stop>
            <stop stop-color="#E9E7EE" offset="100%"></stop>
        </linearGradient>
        <polyline id="path-7" points="60.7451324 218.353085 377.464293 0.0403658626 0.29131831 183.36105 30.5182254 298.541479 60.7451324 218.353085"></polyline>
        <linearGradient x1="30.319837%" y1="37.2088363%" x2="122.31042%" y2="86.8841946%" id="linearGradient-9">
            <stop stop-color="#BCB8D1" offset="0%"></stop>
            <stop stop-color="#E9E7EE" offset="100%"></stop>
        </linearGradient>
        <path d="M47.5686111,55.8412548 C35.5036111,55.8412548 23.4421296,53.1173316 14.2376852,47.6676813 C-4.1712037,36.7701847 -4.1712037,19.1025663 14.2359259,8.20506966 C23.4386111,2.75722328 35.5036111,0.0314961757 47.5650926,0.0314961757 C59.6300926,0.0314961757 71.6915741,2.75541936 80.8960185,8.20506966 C99.3049074,19.1025663 99.3049074,36.7701847 80.8977778,47.6676813 C71.6950926,53.1155277 59.6300926,55.8412548 47.5686111,55.8412548" id="path-10"></path>
        <linearGradient x1="-286.364086%" y1="-371.673023%" x2="207.617113%" y2="-25.6972009%" id="linearGradient-12">
            <stop stop-color="#9592BB" offset="0%"></stop>
            <stop stop-color="#B7B5CB" offset="100%"></stop>
        </linearGradient>
        <path d="M47.6351225,55.4103358 C35.5588824,55.4103358 23.4861641,52.6874216 14.2731445,47.2397899 C-4.15113377,36.3463299 -4.15289467,18.6852559 14.2713836,7.79179586 C21.4734574,3.53431213 30.4293858,0.941232249 39.7621465,0.0107529586 C40.0456511,0.874511834 40.3168295,1.75630325 40.5739206,2.65071746 C38.5559312,3.02759763 36.344243,4.04823964 36.0660211,6.69181065 C35.5465561,11.6597766 43.3790315,15.9100473 43.5181424,15.9839808 C44.685618,22.7876598 45.3653247,28.8574142 45.9517038,31.8724556 C44.2929377,32.2078609 41.103951,32.7758861 37.9924438,32.8840814 C33.5091969,33.0409645 21.2815195,35.4086376 21.5192408,39.8951346 C21.7552011,44.3996642 28.0169553,50.8661346 35.9568454,51.839892 C37.3902166,52.0148077 38.8993064,52.0869379 40.4400923,52.0869379 C43.7946035,52.0869379 47.3023128,51.747926 50.5124303,51.4089142 C53.7225477,51.0699024 56.6350734,50.7308905 58.8009783,50.7308905 C58.9858726,50.7308905 59.1654842,50.734497 59.3380522,50.7399068 C59.4137708,50.7417101 59.4877286,50.7435133 59.5616863,50.7435133 C64.618986,50.7435133 68.1390216,45.6222707 66.2530996,40.6885666 C66.3076875,40.1710325 66.3024048,39.6679246 66.2548605,39.2135044 C65.9783995,36.4743609 64.1858051,32.0347485 64.2227839,29.0575754 C64.2403929,27.6852988 64.4041565,26.6502308 64.5908117,25.7990947 C64.5908117,25.7990947 64.5908117,25.7990947 64.5908117,25.8008979 C66.8148261,27.0505533 68.5704417,27.5157929 69.9633122,27.5157929 C73.0695367,27.5157929 74.3602751,25.1932012 74.9607414,24.0445281 C75.8306251,22.385534 74.1912289,19.6608166 74.1912289,19.6608166 C74.1912289,19.6608166 73.5978062,17.913463 73.513283,17.0208521 C73.4710215,16.5592189 73.7862223,10.5237263 74.1348801,4.43233284 C76.5525934,5.40609024 78.8505656,6.52591124 80.9935788,7.79359911 C99.4196179,18.6870592 99.4196179,36.3481331 80.9953397,47.2415932 C71.784081,52.6874216 59.7078409,55.4103358 47.6351225,55.4103358" id="path-13"></path>
        <linearGradient x1="252.896402%" y1="390.179676%" x2="116.375724%" y2="-146.836143%" id="linearGradient-15">
            <stop stop-color="#9592BB" offset="0%"></stop>
            <stop stop-color="#B7B5CB" offset="100%"></stop>
        </linearGradient>
    </defs>
    <g id="Page-1" stroke="none" stroke-width="1" fill="none" fill-rule="evenodd">
        <g id="Artboard" transform="translate(-138.000000, -214.000000)">
            <g id="Group" transform="translate(138.000000, 214.000000)">
                <polyline id="Fill-286" fill="#242250" points="154 423 502 124 184.318729 342.677586 154 423"></polyline>
                <g id="Group-289" transform="translate(0.000000, 124.000000)">
                    <mask id="mask-2" fill="white">
                        <use xlink:href="#path-1"></use>
                    </mask>
                    <g id="Clip-288"></g>
                    <path d="M124.152769,184.000063 L0.19699059,112.029033 L501.464138,0.0391793046 L129.215843,181.530114 L124.152769,184.000063 M127.437447,90.9717908 C115.401235,90.9717908 103.361512,93.639477 94.1781071,98.9713183 C75.8095415,109.636766 75.8095415,126.928175 94.1798626,137.593623 C103.365023,142.92723 115.401235,145.593151 127.440958,145.593151 C139.47717,145.593151 151.516893,142.925464 160.700298,137.593623 C179.068864,126.928175 179.068864,109.636766 160.698543,98.9713183 C151.513382,93.6377115 139.47717,90.9717908 127.437447,90.9717908" id="Fill-287" fill="url(#linearGradient-3)" mask="url(#mask-2)"></path>
                </g>
                <g id="Group-292" transform="translate(185.000000, 124.000000)">
                    <mask id="mask-5" fill="white">
                        <use xlink:href="#path-4"></use>
                    </mask>
                    <g id="Clip-291"></g>
                    <path d="M123.816801,289.867858 L0.0128586179,218.199608 L78.511214,164.084487 C79.6158861,168.514965 80.9169445,172.51646 82.4319234,175.394512 C83.4699646,177.368888 84.3800041,179.59995 85.1795763,181.975178 C75.8863025,182.882371 66.9682665,185.410557 59.7966646,189.561492 C41.4503393,200.182332 41.4520927,217.401418 59.798418,228.022258 C68.9724574,233.333557 80.9940962,235.988327 93.0192418,235.988327 C105.040881,235.988327 117.066026,233.333557 126.238312,228.024016 C144.584638,217.403176 144.584638,200.18409 126.236559,189.56325 C124.102613,188.327288 121.814363,187.235491 119.406879,186.286103 C119.731267,180.732183 120.087217,175.132552 120.206451,173.88604 C120.455441,171.312144 119.347262,157.331525 117.329043,150.408025 C116.40673,147.243398 116.129685,142.438439 116.099876,138.169709 L316.464614,0.040777338 L123.816801,289.867858" id="Fill-290" fill="url(#linearGradient-6)" mask="url(#mask-5)"></path>
                </g>
                <g id="Group-295" transform="translate(124.000000, 124.000000)">
                    <mask id="mask-8" fill="white">
                        <use xlink:href="#path-7"></use>
                    </mask>
                    <g id="Clip-294"></g>
                    <polyline id="Fill-293" fill="url(#linearGradient-9)" mask="url(#mask-8)" points="60.7451324 218.353085 377.464293 0.0403658626 0.29131831 183.36105 30.5182254 298.541479 60.7451324 218.353085"></polyline>
                </g>
                <polyline id="Fill-296" fill="#FFFFFE" points="118 305.796683 501 125 123.518499 309 118 305.796683"></polyline>
                <polyline id="Fill-297" fill="#FFFFFE" points="185 342.12335 501 123 189.942917 345 185 342.12335"></polyline>
                <path d="M249.224666,253 C249.224666,253 247.885983,256.636304 248.007842,257.507802 C248.129701,258.380898 250.890072,261.820516 251.080808,261.926055 C251.271544,262.029995 253.61159,264.730838 256.232442,266.027691 C258.858592,267.324543 259.059924,267.968972 259.303642,267.997755 C259.54736,268.024939 259.937662,267.796271 259.937662,267.796271 C259.937662,267.796271 260.324432,265.311304 259.171187,264.105599 C258.019707,262.901493 259.741628,261.112124 259.741628,261.112124 L256.767562,254.085774 L249.224666,253" id="Fill-298" fill="#F6CDBD"></path>
                <path d="M277.021833,336 C277.021833,336 272.303589,337.136067 267.748228,337.297041 C263.191078,337.458014 250.761834,339.887421 251.003474,344.490898 C251.243324,349.112877 257.6083,355.747952 265.679074,356.747099 C270.307822,357.318833 275.713397,356.811859 280.474599,356.304884 C284.015072,355.927429 287.19935,355.549973 289.445706,355.618433 C294.711667,355.773856 298.425763,350.433971 296.471164,345.295766 C294.525515,340.181615 277.021833,336 277.021833,336" id="Fill-299" fill="#1A193E"></path>
                <path d="M303.980565,326.16593 C303.980565,326.16593 305.61268,328.883041 304.74666,330.537404 C303.878886,332.195364 301.57359,336.31329 294.422786,332.288872 C287.29302,328.275243 273.445461,322.501155 273.445461,322.501155 C273.445461,322.501155 265.502267,318.230381 266.024684,313.233125 C266.545348,308.261044 273.922298,309.045069 273.922298,309.045069 L303.980565,326.16593" id="Fill-300" fill="#1A193E"></path>
                <path d="M224.414234,150.719126 C224.414234,150.719126 219.691557,150.78418 217.609366,149.787933 C215.527175,148.791686 209.480745,146.691389 209.105037,146.479501 C208.731086,146.269471 205.398878,146.037138 203.871469,145 C203.871469,145 202.168497,145.881009 203.515074,147.340065 C204.861651,148.800979 207.407332,149.276799 207.407332,149.276799 L209.802027,150.7563 C209.802027,150.7563 204.951189,153.391893 204.512278,153.588912 C204.075124,153.785931 200.012569,157.05719 199.601748,157.259785 C199.189173,157.460521 197.379106,158.95675 198.081363,160.280123 C198.081363,160.280123 198.151588,160.581227 199.057499,160.785681 C199.057499,160.785681 196.460905,162.034707 197.101715,163.387818 C197.742524,164.74093 199.389316,164.155449 199.389316,164.155449 C199.389316,164.155449 200.014324,166.581013 203.146389,164.701898 C203.146389,164.701898 203.513318,167.711084 210.46566,164.566215 C210.46566,164.566215 213.274687,163.783715 215.330543,163.934267 C217.384644,164.086678 222.983386,162.555134 225.982022,160.319155 C228.975391,158.09061 224.414234,150.719126 224.414234,150.719126" id="Fill-301" fill="#F6CDBD"></path>
                <path d="M215.704399,162.030099 C217.692804,162.175446 223.112482,160.714889 226.015214,158.582546 C227.96623,157.150349 226.599839,153.495411 225.500268,151.262035 C224.128778,150.567207 222.92044,150 222.92044,150 C222.92044,150 223.126078,156.955372 222.974823,157.999387 C222.825268,159.045174 216.800571,160.285939 212.939326,160.876188 C209.072982,161.466438 204.001699,163.028029 204,163.028029 C204.299111,163.664364 205.589025,165.041612 210.995107,162.632757 C210.995107,162.632757 213.714294,161.886525 215.704399,162.030099" id="Fill-302" fill="#D9AB9D"></path>
                <path d="M279.146295,137 C279.146295,137 269.354179,138.777193 266.021363,139.879779 C262.788216,140.947908 234.725063,146.707466 224.446839,149.315225 C223.798111,149.48025 223.294516,150.027916 223.14064,150.722472 C223.014742,151.279205 222.936055,151.942933 223.068948,152.496039 C223.357466,153.698365 224.341923,165.752451 230.044082,163.783031 C231.755953,163.190028 236.786653,162.101951 240.808414,161.550658 C244.82493,161.001179 261.982115,159.633828 261.982115,159.633828 L291,142.409559 L279.146295,137" id="Fill-303" fill="#414287"></path>
                <path d="M258,256.381553 C258,256.381553 260.609376,288.384323 267.034215,300.464861 C273.533005,312.685181 274.967986,334.892824 276.283238,339.117693 C277.603772,343.360034 281.803071,349.454469 288.578293,350.763165 C295.355275,352.071861 296.561363,347.651299 296.28317,344.990226 C296.006738,342.336142 294.214333,338.034393 294.251308,335.149671 C294.288283,332.271938 295.015457,330.928297 295.149271,329.605623 C295.149271,329.605623 302.899928,331.842113 304.218701,326.044712 C304.218701,326.044712 303.625341,324.351619 303.540827,323.486727 C303.458073,322.621834 304.715222,301.528941 304.965243,298.965714 C305.215264,296.407729 304.102494,282.513537 302.075914,275.632837 C300.06342,268.795818 301.109283,254.248152 301.109283,254.248152 L278.677807,251 L258,256.381553" id="Fill-304" fill="#242250"></path>
                <path d="M295.304547,254.734617 C295.304547,254.734617 295.121784,259.788324 293.085742,264.017116 C293.085742,264.017116 292.798772,281.156619 291,289.790844 C291,289.790844 293.303774,307.103455 294.85245,312.544006 C296.410744,318.01282 295.981091,328.627194 295.981091,328.627194 C295.981091,328.627194 296.782682,328.950447 297.941784,328.999907 C299.099282,329.051133 299.604285,308.000792 297.893688,304.261297 C296.187901,300.534166 295.160261,283.984645 295.931392,278.932705 C296.699317,273.907261 296.752222,259.461538 297.690084,256.914371 C298.626343,254.374269 296.651221,253 296.651221,253 L295.304547,254.734617" id="Fill-305" fill="#1A193E"></path>
                <path d="M276,138 C276,138 269.829572,142.338826 270.003614,150 L274.543205,149.093014 C274.543205,149.093014 273.349085,140.595125 276,138" id="Fill-306" fill="#1A193E"></path>
                <path d="M277.37208,264.082099 C291.874122,264.681618 299.833606,257.983287 299.833606,257.983287 C299.909083,255.838711 300,254.439833 300,254.439833 L278.145728,251 L258,256.699132 C258,256.699132 258.504329,263.408565 259.615912,271.985019 C263.177095,272.419856 266.822333,263.243883 266.822333,263.243883 L276.783695,264.000683 C276.783695,264.000683 262.847737,263.48258 277.37208,264.082099" id="Fill-307" fill="#1A193E"></path>
                <path d="M260.870768,255.45745 C260.870768,255.45745 293.023595,268.566785 309.194135,244.34918 C309.655095,243.657649 309.883816,242.808553 309.873259,241.950704 L309.809921,236.245132 C309.801124,235.520338 309.924282,234.802545 310.172355,234.132023 C310.708969,232.685934 310.858517,231.112044 310.603406,229.571417 C309.540735,223.162059 306.651819,205.66719 305.990289,200.794957 C305.18097,194.846036 308.942543,171.01709 314.616571,160.708895 C320.221983,150.52325 306.982584,127.093466 306.982584,127.093466 C306.982584,127.093466 303.71364,121.590977 297.020926,123.345191 C297.020926,123.345191 303.266755,127.851525 299.695196,132.433139 C296.104284,137.041014 285.618328,140.59321 285.618328,140.59321 C285.618328,140.59321 266.168288,150.166105 259.375288,162.055193 C259.375288,162.055193 257.01067,168.24046 256.688702,176.088904 C256.363215,184.005625 256.957888,202.950084 256.581379,205.567399 C256.20487,208.193468 254.90996,226.096253 255.004967,226.931342 C255.098215,227.768183 260.870768,255.45745 260.870768,255.45745" id="Fill-308" fill="#3D3980"></path>
                <path d="M269.995884,259 C269.995884,259 290.531706,209.067785 289.989447,190.685993 C289.456166,172.664389 260.644606,226.583037 260.644606,226.583037 L260,256.301197 C260,256.301197 266.218025,258.535409 269.995884,259" id="Fill-309" fill="#242250"></path>
                <path d="M261.832069,198.94455 C262.597517,194.782656 263.073289,190.594453 263.189159,186.402743 C263.394566,179.099697 265.682131,166.982322 279.06869,169.286886 C297.938031,172.535023 289.31621,198.525379 287.15856,203.038045 C284.990377,207.575264 276.3668,227.972581 275.912095,229.128371 C275.483726,230.21576 262.062055,255.49756 257.33243,261.527309 C256.900549,262.078019 256.154413,262.155188 255.640018,261.718479 C253.786089,260.147026 249.618261,256.395533 249.100355,254.040108 C248.433222,251.005941 251.310673,240.033833 251.310673,240.033833 C251.310673,240.033833 259.079266,212.486054 259.71831,211.202233 C260.197592,210.239367 260.592606,205.682856 261.832069,198.94455" id="Fill-310" fill="#414287"></path>
                <path d="M278.923675,137 C278.923675,137 277.498493,133.458809 274.066667,133.034661 C270.634842,132.610512 268.69894,131.583531 268.374565,130.253328 C268.050189,128.923126 268.058816,127.320385 267.256504,125.329593 C266.455917,123.344216 265.827871,118.481848 265.841674,118.36453 C265.855477,118.247212 263.250119,117.379061 263.141419,116.175201 C263.030993,114.97134 264.456176,110.704585 264.312967,110.368876 C264.169759,110.034971 262.80324,107.374566 263.024092,105.327823 C263.244943,103.28469 263.545163,100.321063 264.633892,97.8249032 C265.71917,95.3359625 273.302314,80.1694875 292.221352,88.4485094 C311.262894,96.7780681 296.32781,113.319868 298.00145,124.219587 C298.00145,124.219587 299.656111,126.533454 296.460666,130.356207 C293.251417,134.197009 284.184427,134.884671 278.923675,137" id="Fill-311" fill="#F6CDBD"></path>
                <path d="M297.964802,129.597992 C301.267577,125.914358 299.557339,123.684699 299.557339,123.684699 C299.318369,122.227247 299.416454,120.660224 299.700008,119.027112 L291.922793,120.333254 C291.922793,120.333254 280.660901,110.223264 281.374243,115.550444 C282.091152,120.91067 279.291284,121.78375 279.291284,121.78375 L281.584679,124.726482 C282.173187,125.483036 281.798682,126.352638 281.292209,127.164846 C277.92345,132.559855 270.017834,130.794564 270,130.796303 C270.979062,131.438069 272.594783,131.923307 274.818627,132.17897 C278.365722,132.587683 279.838774,136 279.838774,136 C285.276226,133.961653 294.647761,133.299017 297.964802,129.597992" id="Fill-312" fill="#D9AB9D"></path>
                <path d="M262.478224,93.9642158 C262.478224,93.9642158 260.992926,97.9647421 263.257547,99.6985403 C265.525835,101.435891 267.577747,103.070209 267.577747,103.070209 L267.476894,108.161465 C267.462224,108.896908 267.669432,109.61814 268.069179,110.238115 L270.876576,114.57794 C271.417517,115.41464 271.699907,116.391678 271.688905,117.388256 L271.665067,119.461353 C271.657732,120.07067 272.11249,120.587612 272.724946,120.663998 L273.478598,120.758149 C274.144231,120.841641 274.751186,120.376216 274.835536,119.718936 L275.20411,116.842892 C275.20411,116.842892 276.755422,114.55307 280.023077,117.368716 L282.975336,118.599783 C283.798668,118.942635 284.440463,119.608797 284.735689,120.445497 C285.524181,122.673143 287.218521,127.068038 288.533285,127.814139 C290.313808,128.823153 297.344219,125.465696 298.308746,123.945069 C299.269605,122.426219 301.845955,112.20285 303.411936,107.324766 C304.970582,102.476881 304.3948,90.3669397 289.398791,86.9881649 C274.426621,83.6147193 264.629156,89.6119558 262.478224,93.9642158" id="Fill-313" fill="#9F7C79"></path>
                <path d="M296.171706,124.04297 C297.080806,122.560791 299.518375,112.584251 301,107.823942 C301,107.823942 295.427423,111.379438 288.274331,112.336354 C281.105623,113.296737 267.070086,105 267.070086,105 L267.000689,108.64044 C266.98681,109.358127 267.182856,110.061946 267.56107,110.666952 L270.217239,114.901998 C270.729041,115.718497 270.99622,116.671945 270.98581,117.644463 L270.961521,119.667508 C270.956317,120.262113 271.386578,120.766574 271.966042,120.841116 L272.679096,120.932994 C273.308874,121.01447 273.883134,120.560282 273.96294,119.918871 L274.31166,117.112265 C274.31166,117.112265 275.779406,114.877728 278.871041,117.625394 L282.91168,119.362404 C282.91168,119.362404 285.241683,126.835708 286.922825,127.818627 C288.607436,128.803279 295.259136,125.526883 296.171706,124.04297" id="Fill-314" fill="#886764"></path>
                <path d="M297.435777,124 C297.435777,124 303.112758,127.402517 300.137462,132.050189 C297.145858,136.725041 276.130338,144.778627 275.073945,146 C275.073945,146 274.387199,138.967338 277.199416,136.63331 C277.199416,136.63331 293.23376,133.976527 295.797733,130.212184 C298.349022,126.46313 297.435777,124 297.435777,124" id="Fill-315" fill="#F3F7F9"></path>
                <path d="M297.497899,124 C297.497899,124 298.395228,126.512031 295.888406,130.335515 C293.981584,133.240808 284.506225,135.496439 280,136.425024 C280,136.425024 281.650443,137.365736 284.345988,142 C290.709184,138.938787 298.437957,134.9923 300.152495,132.21001 C303.075933,127.470067 297.497899,124 297.497899,124" id="Fill-316" fill="#BFC5CA"></path>
                <path d="M287.171469,174 C292.251428,189.746895 278.233061,213.823404 276.154319,220.846446 C274.059267,227.927054 253.003625,260.44482 253,260.451798 C253.565447,260.950703 254.087398,261.386808 254.495172,261.719993 C255.026184,262.154354 255.796424,262.077599 256.242257,261.529851 C261.124672,255.532529 274.97993,230.386689 275.422138,229.305147 C275.891531,228.155574 284.793693,207.867948 287.03192,203.355129 C288.818876,199.754643 294.910115,182.341825 287.171469,174" id="Fill-317" fill="#242250"></path>
                <path d="M300,139 C300,139 291.121979,144.07459 286.799559,146.3612 C282.465137,148.654972 277.729507,151.716916 277.729507,151.716916 L276.116101,149.992558 L274.06548,154.449387 C274.06548,154.449387 267.253511,158.53377 264.042129,161.975323 C260.815317,165.429411 258.35663,169.963237 258,171 C258,171 266.596832,159.724526 273.285353,156.435174 L275.085647,155.530916 L276.15725,151.99446 L277.753511,153.804768 C277.753511,153.804768 297.263553,142.063735 300,139" id="Fill-318" fill="#242250"></path>
                <g id="Group-321" transform="translate(80.000000, 214.000000)">
                    <mask id="mask-11" fill="white">
                        <use xlink:href="#path-10"></use>
                    </mask>
                    <g id="Clip-320"></g>
                    <path d="M47.5686111,55.8412548 C35.5036111,55.8412548 23.4421296,53.1173316 14.2376852,47.6676813 C-4.1712037,36.7701847 -4.1712037,19.1025663 14.2359259,8.20506966 C23.4386111,2.75722328 35.5036111,0.0314961757 47.5650926,0.0314961757 C59.6300926,0.0314961757 71.6915741,2.75541936 80.8960185,8.20506966 C99.3049074,19.1025663 99.3049074,36.7701847 80.8977778,47.6676813 C71.6950926,53.1155277 59.6300926,55.8412548 47.5686111,55.8412548" id="Fill-319" fill="url(#linearGradient-12)" mask="url(#mask-11)"></path>
                </g>
                <g id="Group-324" transform="translate(230.000000, 305.000000)">
                    <mask id="mask-14" fill="white">
                        <use xlink:href="#path-13"></use>
                    </mask>
                    <g id="Clip-323"></g>
                    <path d="M47.6351225,55.4103358 C35.5588824,55.4103358 23.4861641,52.6874216 14.2731445,47.2397899 C-4.15113377,36.3463299 -4.15289467,18.6852559 14.2713836,7.79179586 C21.4734574,3.53431213 30.4293858,0.941232249 39.7621465,0.0107529586 C40.0456511,0.874511834 40.3168295,1.75630325 40.5739206,2.65071746 C38.5559312,3.02759763 36.344243,4.04823964 36.0660211,6.69181065 C35.5465561,11.6597766 43.3790315,15.9100473 43.5181424,15.9839808 C44.685618,22.7876598 45.3653247,28.8574142 45.9517038,31.8724556 C44.2929377,32.2078609 41.103951,32.7758861 37.9924438,32.8840814 C33.5091969,33.0409645 21.2815195,35.4086376 21.5192408,39.8951346 C21.7552011,44.3996642 28.0169553,50.8661346 35.9568454,51.839892 C37.3902166,52.0148077 38.8993064,52.0869379 40.4400923,52.0869379 C43.7946035,52.0869379 47.3023128,51.747926 50.5124303,51.4089142 C53.7225477,51.0699024 56.6350734,50.7308905 58.8009783,50.7308905 C58.9858726,50.7308905 59.1654842,50.734497 59.3380522,50.7399068 C59.4137708,50.7417101 59.4877286,50.7435133 59.5616863,50.7435133 C64.618986,50.7435133 68.1390216,45.6222707 66.2530996,40.6885666 C66.3076875,40.1710325 66.3024048,39.6679246 66.2548605,39.2135044 C65.9783995,36.4743609 64.1858051,32.0347485 64.2227839,29.0575754 C64.2403929,27.6852988 64.4041565,26.6502308 64.5908117,25.7990947 C64.5908117,25.7990947 64.5908117,25.7990947 64.5908117,25.8008979 C66.8148261,27.0505533 68.5704417,27.5157929 69.9633122,27.5157929 C73.0695367,27.5157929 74.3602751,25.1932012 74.9607414,24.0445281 C75.8306251,22.385534 74.1912289,19.6608166 74.1912289,19.6608166 C74.1912289,19.6608166 73.5978062,17.913463 73.513283,17.0208521 C73.4710215,16.5592189 73.7862223,10.5237263 74.1348801,4.43233284 C76.5525934,5.40609024 78.8505656,6.52591124 80.9935788,7.79359911 C99.4196179,18.6870592 99.4196179,36.3481331 80.9953397,47.2415932 C71.784081,52.6874216 59.7078409,55.4103358 47.6351225,55.4103358" id="Fill-322" fill="url(#linearGradient-15)" mask="url(#mask-14)"></path>
                </g>
                <path d="M270.236463,357 C268.670259,357 267.136273,356.932203 265.679256,356.767797 C257.608381,355.852542 251.243327,349.774576 251.003474,345.540678 C250.761831,341.323729 263.191228,339.098305 267.748435,338.950847 C270.911273,338.849153 274.152869,338.315254 275.838999,338 C275.942816,338.491525 276.044843,338.89661 276.14508,339.20339 C277.487541,343.318644 281.756567,349.230508 288.644286,350.5 C289.499881,350.657627 290.269558,350.728814 290.958688,350.728814 C294.898363,350.728814 296.240824,348.381356 296.475307,346.286441 C298.392341,350.923729 294.814235,355.737288 289.673505,355.737288 C289.598328,355.737288 289.52315,355.735593 289.446182,355.733898 C289.270767,355.728814 289.088193,355.725424 288.900248,355.725424 C286.698612,355.725424 283.738039,356.044068 280.474964,356.362712 C277.211889,356.681356 273.646313,357 270.236463,357" id="Fill-325" fill="#18163A"></path>
                <path d="M299.771418,334 C298.384732,334 296.636911,333.532236 294.422771,332.2758 C294.422771,332.273987 294.422771,332.273987 294.422771,332.273987 C294.636647,331.280441 294.878572,330.535282 294.950448,329.797375 C294.950448,329.797375 295.783161,330.112844 296.998046,330.1763 C297.364439,330.212561 297.762389,330.237943 298.176115,330.237943 C300.458626,330.237943 303.239011,329.498223 303.980563,326.1024 C303.980563,326.1024 305.612681,328.841903 304.746659,330.509899 C304.148859,331.664805 302.863851,334 299.771418,334 M273.443662,322.405613 C273.305169,322.331279 265.507469,318.057945 266.024628,313.063021 C266.301614,310.405106 268.503483,309.378925 270.512512,309 C271.757199,313.363986 272.700356,318.036188 273.443662,322.405613" id="Fill-326" fill="#18163A"></path>
                <path d="M290.80135,351 C290.131854,351 289.384104,350.923919 288.552885,350.755454 C281.861395,349.398677 277.713993,343.080334 276.409779,338.68213 C276.312398,338.354257 276.213277,337.92132 276.112418,337.395999 C275.533347,334.367252 274.862111,328.269906 273.709186,321.4353 C272.97187,317.069702 272.036313,312.401591 270.801657,308.041427 C270.54777,307.142947 270.279971,306.257147 270,305.389462 C272.570172,305.130425 275.171645,305 277.771379,305 C282.741305,305 287.711232,305.4746 292.475962,306.425612 C292.940262,308.833031 293.404562,310.950618 293.818433,312.327321 C295.508695,317.935575 295.042655,328.820588 295.042655,328.820588 C294.971358,329.557848 294.731383,330.302355 294.519231,331.29503 C294.334902,332.150035 294.173179,333.189809 294.15579,334.568323 C294.119272,337.55903 295.889525,342.018823 296.162541,344.770418 C296.209493,345.226904 296.214709,345.732299 296.160802,346.252186 C295.932999,348.49114 294.628785,351 290.80135,351 M298.242328,329.26077 C297.831935,329.26077 297.437193,329.23541 297.073752,329.199181 C297.105053,329.200992 297.136354,329.202804 297.169394,329.202804 C297.171133,329.202804 297.172872,329.202804 297.172872,329.202804 C298.184943,329.204615 298.734452,315.178546 297.934534,307.751595 C300.002148,308.347562 302.012377,309.041348 303.944354,309.831141 C303.600041,315.950224 303.288768,322.013153 303.330503,322.476884 C303.413973,323.373553 304,325.128849 304,325.128849 C303.264423,328.521698 300.506444,329.26077 298.242328,329.26077" id="Fill-327" fill="#1F1E48"></path>
                <path d="M298.82433,329 C298.82433,329 298.822544,329 298.820758,329 C298.786822,329 298.754671,328.99825 298.722521,328.996501 C297.484735,328.935263 296.636324,328.630826 296.636324,328.630826 C296.636324,328.630826 297.115006,318.117226 295.37889,312.700334 C294.953792,311.370606 294.476896,309.325274 294,307 C295.905798,307.356927 297.77766,307.78384 299.606654,308.280738 C300.428273,315.454271 299.863856,329.00175 298.82433,329" id="Fill-328" fill="#18163A"></path>
                <path d="M155.014096,139.676599 C155.014096,139.676599 158.422074,140.270465 159.671136,139.618661 C160.918431,138.966857 164.178005,138.526889 167.951692,139.908352 C171.730678,141.291625 171.416204,141.079788 172.907305,141.230065 C174.398406,141.380342 176.822328,141.537862 177.608513,142.048442 C178.396464,142.559021 179.894631,143.533106 178.506,145.560941 C177.117368,147.592397 171.926783,145.682249 171.082297,145.522919 C170.237811,145.361779 169.312056,146.895329 169.732532,148.274981 C170.153009,149.656444 177.979521,158.42864 179.205616,159.301333 C180.435244,160.174026 185.722998,163.798781 185.95267,165.229129 C186.180575,166.661287 185.885535,166.864071 185.885535,166.864071 C185.885535,166.864071 187.42787,168.294419 186.883725,169.619753 C186.337812,170.946899 183.936857,168.913632 183.493414,169.219618 C183.493414,169.219618 183.883856,170.69342 183.297309,170.965005 C182.710763,171.234779 179.279817,169.869612 178.866408,169.445939 C178.866408,169.445939 178.468899,170.579354 176.507854,169.406107 C174.550343,168.23648 167.045371,163.863962 166.165551,163.038343 C165.285731,162.214535 162.331797,159.411778 161.114535,158.664014 C159.899041,157.916249 157.80196,155.366971 156.756069,154.363917 C155.710179,153.362674 151.051372,150.945567 149.272298,150.594317 C147.493224,150.243067 155.014096,139.676599 155.014096,139.676599" id="Fill-329" fill="#F6CDBD"></path>
                <path d="M160.779343,156.193912 C159.087688,152.89779 153.407199,150.343387 153.407199,150.343387 C153.79064,147.659508 157.411649,140.249706 157.411649,140.249706 C156.158957,140.22566 154.906265,140 154.906265,140 C154.906265,140 147.52024,150.794708 149.267416,151.153546 C151.014592,151.512383 155.589867,153.9817 156.617005,155.004571 C157.644143,156.029291 159.703624,158.633635 160.897325,159.397551 C162.092761,160.161467 164.993732,163.024765 165.857777,163.866368 C166.721822,164.70982 174.093967,169.176787 176.014646,170.371678 C177.94053,171.570268 178.330911,170.412371 178.330911,170.412371 C178.736909,170.845195 182.106338,172.23985 182.682368,171.964249 C183.258398,171.686797 182.874956,170.181161 182.874956,170.181161 C182.874956,170.181161 180.50664,168.747662 178.068922,167.833923 C175.632939,166.922032 162.477938,159.501133 160.779343,156.193912" id="Fill-330" fill="#D9AB9D"></path>
                <path d="M149.505104,129 C149.505104,129 150.196832,132.775796 149.944692,135.849158 C149.69421,138.932927 143.783833,134.902174 144.006115,134.369712 C144.226738,133.83725 146.81118,129.194253 146.81118,129.194253 L149.505104,129" id="Fill-331" fill="#F6CDBD"></path>
                <path d="M121,35 C121,35 124.516051,34.8413952 128.797622,41.8121145 C132.920749,48.5232858 140.171826,72.5464894 143.972722,81.7595627 C144.309194,82.5770508 144.558433,83.4245547 144.709757,84.2985431 C145.945271,91.4864353 151.734738,125.303605 152,129.368093 C152,129.368093 147.584908,132.281387 144.748923,133 L138.516166,130.9501 L132.377764,69.6508511 L122.434905,37.2815001 L121,35" id="Fill-332" fill="#242250"></path>
                <path d="M101.697735,235 C101.697735,235 100.566071,240.492717 101.185188,241.556375 C101.804304,242.621744 108.868317,250.691523 109.615993,251.775702 C110.365361,252.861591 114.003937,259.467558 120.697496,261.080146 C127.401204,262.694444 131.958305,262.275479 132.86668,259.093055 C133.771672,255.920891 129.838762,250.650482 128.018629,248.948971 C126.200186,247.24917 118.550888,238.049039 117.153648,236.713482 C115.756407,235.381344 113.733285,235.172716 113.733285,235.172716 L105.004762,236.706641 L101.697735,235" id="Fill-333" fill="#1A193E"></path>
                <path d="M132.00287,220 C132.00287,220 139.015814,222.628292 142.682156,223.521567 C146.35205,224.416561 155.095139,230.73305 154.999217,233.907615 C154.903295,237.08905 150.597475,239.284447 146.224155,238.970082 C141.850834,238.657436 136.65685,235.956995 135.809541,235.240657 C134.964009,234.5226 131.965567,232.935318 128.384489,231.856516 C124.806963,230.779432 119.041001,230.250338 118.088889,228.403662 C117.14033,226.56214 117,222.753694 117,222.753694 L132.00287,220" id="Fill-334" fill="#1A193E"></path>
                <path d="M115.70792,217.625802 C115.759231,217.292851 115.99184,216.732647 116.032889,216.498347 C116.339044,214.775455 116.049992,207.783473 116.049992,207.783473 L114.561977,209.878073 C114.561977,209.878073 115.608719,216.882387 117.64234,227.832793 C118.157159,230.610913 119.569918,233.477114 119.778582,235.050266 C120.396023,239.739774 117.693651,240.65407 117.693651,240.65407 C112.206808,244.910212 107.516994,242.339967 105.830577,240.972928 C104.14758,239.605889 103.576319,237.409114 101.238254,229.515167 C98.917292,221.677594 96.8990643,205.118099 97.4002005,201.180815 C97.841474,197.708606 99.0678038,188.010732 99.0079412,181.342893 C98.9463681,174.717333 94,153.54232 94,153.54232 L114.459355,149.450011 L128.426175,142 L139.085153,143.655949 C139.085153,143.655949 140.434629,139.019291 141.840547,153.455999 C143.266989,168.097059 134.653604,194.007383 134.653604,194.007383 C132.382243,206.837468 131.80243,221.591273 130.511107,223.590744 C129.219783,225.593738 124.124613,230.313194 119.410854,226.64368 C118.543701,225.968969 117.556822,225.26431 117.038582,224.540272 L115.70792,217.625802" id="Fill-335" fill="#242250"></path>
                <path d="M113,209.606691 C113,209.606691 119.807978,190.823423 123.034631,172.617211 C126.20419,154.728467 131.700746,152.21152 133.98449,149 C133.98449,149 137.423946,150.599621 139.24575,150.913582 C139.467204,150.952169 139.666167,150.971463 139.830527,150.966201 C141.347833,150.91709 132.221509,162.435413 130.581366,165.390853 C128.937762,168.355063 119.500019,193.703442 118.844308,197.202613 C118.185136,200.712307 117.515584,225.164408 118.280292,226.567584 C119.04673,227.97076 115.669558,225.50994 115.669558,225.50994 C115.669558,225.50994 113.586507,220.102449 113,209.606691" id="Fill-336" fill="#1A193E"></path>
                <path d="M133,142.559426 L129.307516,142 L114.983133,149.439659 L94,153.526282 C94,153.526282 99.0729996,174.671874 99.136149,181.288227 C99.1975442,187.946802 97.9415733,197.631201 97.4872487,201.098586 C96.9767913,204.995215 99.0431791,221.566885 101.42356,229.393568 C102.462016,232.809936 103.161921,235.15671 103.761841,236.833228 C104.707327,241.285765 108.063014,242 108.063014,242 C108.063014,242 99.8360545,216.444093 100.55701,201.496165 C101.269194,186.759341 103.377682,174.492435 102.998786,171.64253 C102.998786,171.64253 126.895561,164.273239 131.373904,148.806347 C132.072055,146.392724 132.601808,144.327422 133,142.559426" id="Fill-337" fill="#1A193E"></path>
                <path d="M90.9788447,39.4273191 C90.9788447,39.4273191 89.2547891,40.8442155 88.882934,42.2871897 C88.5110789,43.733641 86.3813632,48.8657615 86.3813632,48.8657615 C86.3813632,48.8657615 76.2469769,62.0072582 74.4215063,66.0336779 C72.5906981,70.0757443 72,73.0955591 72,73.0955591 L98.8358408,105.386889 C98.8358408,105.386889 89.4416063,137.043657 92.0623842,148.590929 C94.7151879,160.272066 98.1668574,164.620112 102.390705,165.88228 C106.619889,167.146186 129.19452,158.069357 130.753108,146.506439 C132.295684,135.075649 131.667623,133.623982 131.667623,133.623982 C131.667623,133.623982 142.209449,136.372588 142.867757,133.745679 C143.526065,131.125725 141.540465,112.255794 140.997806,109.555867 C140.456926,106.864633 138.834285,77.0941624 138.834285,77.0941624 C138.834285,77.0941624 132.411333,49.6307117 132.044816,48.2781406 C131.678298,46.9273081 127.689307,36.609173 122.558062,36.0302448 C117.428597,35.449578 111.034112,43.4224454 111.034112,43.4224454 L90.9788447,39.4273191" id="Fill-338" fill="#3D3980"></path>
                <path d="M90.7239773,37 C90.7239773,37 89.6374032,37.7031051 89.4076912,38.8608495 C89.1761561,40.0203561 88.2773624,42.3111746 90.2335605,44.7041988 C92.1952279,47.1025096 108.03077,59.5927569 114.442651,70.0952786 C120.921988,80.7123413 128.94003,92.547062 129.614581,95 C129.614581,95 132.535205,78.1977274 129.89534,70.4635717 C127.273706,62.7910919 118.87828,47.1571368 117.104393,45.995868 C115.332329,44.8328371 104.437418,43.8389743 104.437418,43.8389743 L90.7239773,37" id="Fill-339" fill="#F3F7F9"></path>
                <path d="M106.525336,53.6849665 C106.525336,53.6849665 105.679005,55.063772 105.429239,56.1284867 C105.429239,56.1284867 100.895709,53.8428991 99,53 L105.959319,57.7770199 C105.959319,57.7770199 106.370804,55.2767149 106.717602,54.9022902 C106.717602,54.9022902 110.688708,57.9012366 111.249335,59.23213 C111.811759,60.5665724 119.150219,78.7802917 119.150219,78.7802917 L123.006325,85 L124,83.4934287 L117.689355,66.5236511 L114.08661,61.0545666 L111.632071,55.1915377 L106.525336,53.6849665" id="Fill-340" fill="#BFC5CA"></path>
                <path d="M106,54.0911853 C106,54.0911853 108.192833,49.8416683 112.43686,50.0045664 C112.43686,50.0045664 113.656997,55.2509493 114,57.3810197 C114,57.3810197 111.261092,58.6045264 110.156997,57.6112018 C109.054608,56.6196479 106,54.0911853 106,54.0911853" id="Fill-341" fill="#1A193E"></path>
                <path d="M114.985963,56.9685123 C114.985963,56.9685123 126.115079,71.1150049 130,88.1916372 L129.188901,97 L123.33367,86.2412012 C123.33367,86.2412012 113.743206,61.5386692 111.513554,57.0133705 C109.294345,52.5096039 114.985963,56.9685123 114.985963,56.9685123" id="Fill-342" fill="#1A193E"></path>
                <path d="M94.5449259,113 C93.7696744,116.021144 92.8567615,119.776045 92,123.805433 C92.0072453,123.814403 109.14791,145.974243 125.881024,155 C127.511226,152.936867 128.632442,150.719448 128.940369,148.403357 C129.76996,142.169109 129.983698,138.817863 130,137.038187 L110.539015,122.424031 L94.5449259,113" id="Fill-343" fill="#242250"></path>
                <path d="M96,80 C96,80 100.703503,86.522975 101.958917,87.1154961 C103.212611,87.7062693 113.388344,105.84021 115.448599,109.257256 C117.517452,112.686537 123,117.48788 123,117.48788 L117.818408,118 L97.5357325,90.3560094 L96,80" id="Fill-344" fill="#242250"></path>
                <path d="M96.3869101,85.1369613 C94.2830072,79.8877983 90.9834631,75.2765484 86.7384045,71.7601189 C81.9114908,67.7586645 75.5820428,63.855621 72.2292802,67.3667786 C66.3362235,73.538543 68.8428127,85.1598067 77.0349066,96.0377172 C85.3156979,107.035127 98.3666365,122.692991 101.447985,125.327238 C104.406931,127.854287 129.721175,146.71929 144.233847,153.769723 C145.314182,154.295166 146.575459,153.894494 147.219403,152.841849 C149.22219,149.567932 153.369682,142.742439 154.854477,139.935973 C155.156048,139.364839 154.975105,138.637302 154.439373,138.296378 C149.135267,134.922293 122.644895,118.048352 114.802269,112.806218 C113.60308,112.004873 112.622086,110.899509 111.944438,109.592051 C109.650723,105.160049 103.757666,94.254021 98.5706406,88.6850229 C97.6446395,87.6938853 96.9368341,86.5147128 96.4277109,85.2406441 L96.3869101,85.1369613" id="Fill-345" fill="#414287"></path>
                <path d="M118,41 L126.387771,50.1162188 L124.221786,50.9259739 L126.985062,52.6525305 C126.985062,52.6525305 133.694958,69.6953707 132.232236,89 C132.232236,89 135.563902,73.8201144 128.34663,52.3003129 L126.114815,51.0830905 L127.620889,50.5685767 L118,41" id="Fill-346" fill="#242250"></path>
                <path d="M91.1196174,35.696239 C91.2923438,36.049142 91.3868888,36.4313101 91.3523435,36.8220856 C91.2814348,37.6277374 91.1814353,38.987705 91.2596167,39.5695646 C91.3741616,40.4216962 97.3268578,49.9156476 109.497704,50 C109.497704,50 110.955878,47.9411123 111.246785,47.5382864 C111.246785,47.5382864 116.170396,47.3213802 118.219476,45.6205599 C120.266738,43.924904 119.006745,40.9519114 119.006745,40.9519114 L119.303107,37.3936163 C119.33947,36.9632468 119.539469,36.5621425 119.868559,36.2677697 C120.303102,35.8787157 120.87219,35.3054635 120.977644,34.8871443 C121.083098,34.4602178 120.794008,33.7199822 120.559464,33.2190321 C120.397647,32.876458 120.330374,32.5063402 120.375829,32.1327795 C120.484919,31.2324465 120.579464,29.3181629 119.908558,26.9321943 C119.714014,26.2453246 119.708559,25.5205823 119.892195,24.8302696 C120.19583,23.6958156 120.624918,22.0208175 120.674009,21.4234646 C120.75219,20.4904235 119.08129,18.0097737 119.006745,17.0336956 C118.9322,16.0558961 117.495844,12.7472153 117.495844,12.7472153 C117.495844,12.7472153 108.450436,-3.15579877 93.8450578,3.72839189 C79.130589,10.6642269 86.8014581,25.5498475 88.6196305,29.7691901 C88.6196305,29.7691901 90.375985,33.2035388 90.6850743,33.9678751 C90.9432547,34.6065434 90.755983,34.954282 91.1196174,35.696239" id="Fill-347" fill="#F6CDBD"></path>
                <path d="M118.979476,14.0986628 C119.102735,15.2451439 118.666047,16.3706207 117.797953,17.1337745 C116.086417,18.6408283 112.670389,21.1123264 108.162641,21.7074464 C104.987848,22.1257807 103.255183,22.2850628 102.313134,22.335823 C101.677471,22.3708301 101.17211,22.8819331 101.136893,23.5208119 C101.073503,24.697049 100.955527,26.4841592 100.786486,27.6866515 C100.719574,28.1697489 100.576946,28.6353428 100.367406,29.0764317 L99.3637281,31.1943585 C99.1136889,31.7194644 98.5695896,32.0397789 97.9973169,31.9960201 L97.7648861,31.9785166 C97.1257015,31.9295067 96.6132973,31.4411583 96.5270162,30.8005292 L96.5146903,30.7095108 C96.2928246,29.0536771 95.3155589,27.5711283 93.8241282,26.8709871 C93.070489,26.5191662 92.2147212,26.3616345 91.3624751,26.7099547 C88.9237129,27.7059054 89.9344345,30.0601299 89.9344345,30.0601299 C89.9344345,30.0601299 86.9744639,26.527918 85.6397479,21.82472 C84.3120752,17.1442766 84.620222,8.67957052 90.7778765,4.2529283 C96.9055966,-0.15270969 104.910371,-1.93806954 111.740666,2.83689289 C117.384156,6.78043774 118.703024,11.5378966 118.979476,14.0986628" id="Fill-348" fill="#9F7C79"></path>
                <path d="M96.3062786,35.0271655 C96.002518,34.6873474 96.3891223,37.6463296 93.1150665,37.7296812 C93.0477559,38.4782428 92.9528308,39.746149 93.027045,40.2879344 C93.1357775,41.0813777 98.7864147,49.9214571 110.339672,50 C110.339672,50 111.723854,48.082913 112,47.7078307 C112,47.7078307 101.39772,42.9263335 99.5182015,40.7543829 C97.6455866,38.5888439 96.6100391,35.3685865 96.3062786,35.0271655" id="Fill-349" fill="#D9AB9D"></path>
                <path d="M115,50.9931114 C115,50.9931114 118.070391,51.3130501 119.504475,52.0080367 C119.504475,52.0080367 119.910603,50.5629545 119.091607,49 C119.091607,49 120.010028,49.6704937 119.999917,53 C119.999917,53 115.493757,51.6697283 115.155036,51.5824723 L115,50.9931114" id="Fill-350" fill="#BFC5CA"></path>
                <path d="M148.908382,150.279137 C148.908382,150.279137 121.606091,134.690641 112.354392,128.475894 C103.160836,122.299651 77.2944878,96.0895563 72,86 C73.3584193,89.3690192 75.3616914,92.8587981 77.9270073,96.2750711 C86.1515228,107.227446 99.1137679,122.821193 102.174176,125.444652 C105.113013,127.961353 130.255223,146.749105 144.671029,153.770666 C145.74226,154.293958 146.994966,153.894926 147.634533,152.846592 C148.020388,152.214792 148.487289,151.44648 149,150.602913 C148.943619,150.403397 148.908382,150.279137 148.908382,150.279137" id="Fill-351" fill="#242250"></path>
                <path d="M86,49 L98.4881552,66.6717379 L101.700605,65.535986 L101.877016,68.9081334 C101.877016,68.9081334 116.822581,79.9865418 128,103 C128,103 113.206149,79.2966647 101.427167,71.4078408 L100.356351,68.0216501 L97.8513105,68.5939146 L86,49" id="Fill-352" fill="#242250"></path>
            </g>
        </g>
    </g>
</svg>